<svg xmlns="http://www.w3.org/2000/svg" xml:space="preserve" x="0" y="0" version="1.1" viewBox="0 0 425.2 212.6">
  <path d="M0 0h425.2v212.6H0z" style="fill:#bb1e10"/>
  <path d="M165.09 71.46c-26.34.75-46.01 4.93-72.31 31.34-5.14 5.16-32.91 32.51-37.88 37.4-.28.27-.08.75.31.75h30.4c.69 0 1.35-.29 1.82-.8l10.19-11.03h35.36v10.81c0 .56.46 1.02 1.02 1.02h31.12c.56 0 1.02-.46 1.02-1.02V72.49c0-.58-.48-1.04-1.05-1.03zm-32.11 45.18h-23.82c4.84-5.24 8.8-9.5 9.7-10.45 7.34-7.74 12.52-9.76 14.13-10.24v20.69zM177.64 84.97V72.49c0-.56.46-1.02 1.02-1.02h77.86c.56 0 1.02.46 1.02 1.02v12.49c0 .56-.46 1.02-1.02 1.02h-22.35v53.96c0 .56-.46 1.02-1.02 1.02h-31.12c-.56 0-1.02-.46-1.02-1.02V86h-22.35c-.56 0-1.02-.46-1.02-1.03zM324.45 71.46c-.56 0-1.02.46-1.02 1.02v35.59c0 8.89-1.06 19.44-11.05 19.44s-10.17-9.98-10.17-20.17V72.49c0-.56-.46-1.02-1.02-1.02h-31.12c-.56 0-1.02.46-1.02 1.02v34.71c0 35.41 38.97 35.44 43.33 35.44s42.02 0 42.02-35.3V72.49c0-.56-.46-1.02-1.02-1.02h-28.93z" style="fill:#fff"/>
</svg>
